<svg width="81" height="27" viewBox="0 0 81 27" fill="none" xmlns="http://www.w3.org/2000/svg">
<path d="M8 7.5C8 9.70914 6.20914 11.5 4 11.5C1.79086 11.5 0 9.70914 0 7.5C0 4.5 1.79086 3.5 4 3.5C6.20914 3.5 8 5.29086 8 7.5Z" fill="white"/>
<path d="M28 8C28 9.933 26.2091 11.5 24 11.5C21.7909 11.5 20 9.933 20 8C20 6.067 21.7909 4 24 4C26.2091 4 28 5.5 28 8Z" fill="white"/>
<path d="M18 4.5C18 6.70914 16.2091 8.5 14 8.5C11.7909 8.5 10 6.70914 10 4.5C10 2.29086 11.7909 0 14 0C16.2091 0 18 2.29086 18 4.5Z" fill="white"/>
<path d="M24 18C24 22.1421 19.5 26.5 14 25.5C8.47715 25.5 4 22.1421 4 18C4 13.8579 8.47715 10.5 14 10.5C19.5 11 24 13.8579 24 18Z" fill="white"/>
<path d="M35.276 16.78C35.048 15.868 34.874 14.95 34.754 14.026C34.634 13.09 34.526 11.554 34.43 9.418C34.43 9.274 34.478 9.148 34.574 9.04C34.682 8.932 34.802 8.878 34.934 8.878H35.096C35.156 9.274 35.198 9.91 35.222 10.786C35.222 10.882 35.234 11.206 35.258 11.758C35.282 12.298 35.342 12.808 35.438 13.288C36.83 13.156 37.94 12.886 38.768 12.478C39.608 12.07 40.028 11.488 40.028 10.732C40.028 9.784 39.608 9.01 38.768 8.41C37.928 7.81 36.662 7.51 34.97 7.51C34.262 7.51 33.662 7.642 33.17 7.906C33.086 7.942 33.026 8.02 32.99 8.14C32.954 8.248 32.924 8.404 32.9 8.608C32.876 8.824 32.846 8.986 32.81 9.094C32.774 9.202 32.708 9.256 32.612 9.256C32.504 9.256 32.432 9.178 32.396 9.022C32.372 8.854 32.36 8.476 32.36 7.888C32.36 7.552 32.588 7.288 33.044 7.096C33.5 6.904 34.088 6.808 34.808 6.808C36.908 6.808 38.468 7.138 39.488 7.798C40.508 8.458 41.018 9.472 41.018 10.84C41.018 11.572 40.724 12.184 40.136 12.676C39.548 13.168 38.834 13.534 37.994 13.774C37.154 14.002 36.35 14.116 35.582 14.116C35.606 14.26 35.63 14.392 35.654 14.512C35.678 14.632 35.696 14.734 35.708 14.818C35.876 15.634 35.96 16.264 35.96 16.708C35.96 16.972 35.924 17.182 35.852 17.338C35.792 17.494 35.654 17.548 35.438 17.5L35.276 16.78ZM45.978 17.518C44.982 17.518 44.256 17.332 43.8 16.96C43.356 16.588 43.134 15.916 43.134 14.944L43.386 10.912V7.042C43.386 6.742 43.446 6.55 43.566 6.466C43.686 6.37 43.95 6.322 44.358 6.322L45.582 6.358C47.118 6.442 48.618 6.484 50.082 6.484C50.394 6.484 50.64 6.574 50.82 6.754C51.012 6.934 51.108 7.18 51.108 7.492C51.108 7.552 51.09 7.6 51.054 7.636C51.018 7.672 50.976 7.684 50.928 7.672L50.082 7.348L44.448 7.492C44.376 7.492 44.334 7.486 44.322 7.474C44.37 7.57 44.394 7.654 44.394 7.726V10.912C44.946 10.948 45.48 10.966 45.996 10.966C46.884 10.966 47.862 10.924 48.93 10.84C49.038 10.828 49.2 10.816 49.416 10.804C49.644 10.78 49.77 10.78 49.794 10.804C49.866 10.876 49.92 10.942 49.956 11.002C49.992 11.062 50.016 11.146 50.028 11.254C50.064 11.518 49.662 11.692 48.822 11.776C47.994 11.86 46.884 11.926 45.492 11.974C45.024 11.974 44.634 11.986 44.322 12.01C44.178 12.37 44.106 12.946 44.106 13.738L44.124 14.8V15.97C44.316 16.126 44.526 16.228 44.754 16.276C44.982 16.324 45.354 16.348 45.87 16.348C46.41 16.348 46.938 16.318 47.454 16.258C47.982 16.198 48.294 16.162 48.39 16.15C49.398 16.03 50.148 15.97 50.64 15.97C50.928 15.97 51.126 16 51.234 16.06C51.354 16.108 51.414 16.198 51.414 16.33C51.414 17.122 49.806 17.518 46.59 17.518H45.978ZM58.532 17.518C58.196 17.518 57.962 17.344 57.83 16.996C57.698 16.648 57.59 16.18 57.506 15.592L57.452 15.142C57.272 14.182 57.128 13.228 57.02 12.28C56.912 11.32 56.804 10.162 56.696 8.806L56.588 7.474C55.868 7.486 54.842 7.456 53.51 7.384L53.15 7.366C52.982 7.354 52.862 7.276 52.79 7.132C52.73 6.976 52.7 6.766 52.7 6.502H53.942C56.03 6.502 57.914 6.58 59.594 6.736C61.274 6.892 62.114 7.21 62.114 7.69C62.114 7.822 62.09 7.912 62.042 7.96C62.006 8.008 61.922 8.032 61.79 8.032C61.31 7.996 60.566 7.894 59.558 7.726C59.33 7.69 59.054 7.648 58.73 7.6C58.406 7.552 58.04 7.504 57.632 7.456C57.632 9.196 57.89 11.872 58.406 15.484C58.43 15.664 58.514 15.922 58.658 16.258C58.718 16.402 58.772 16.558 58.82 16.726C58.88 16.882 58.91 17.026 58.91 17.158C58.91 17.326 58.886 17.428 58.838 17.464C58.79 17.5 58.73 17.518 58.658 17.518C58.598 17.518 58.556 17.518 58.532 17.518ZM69.1564 16.816C70.1404 16.816 70.9024 16.678 71.4424 16.402C71.9824 16.126 72.2524 15.724 72.2524 15.196C72.2524 14.728 72.0904 14.326 71.7664 13.99C71.4424 13.642 71.0404 13.348 70.5604 13.108C70.0804 12.868 69.4264 12.586 68.5984 12.262C68.5264 12.238 68.3524 12.172 68.0764 12.064C66.9484 11.608 66.0784 11.152 65.4664 10.696C64.8664 10.24 64.5664 9.652 64.5664 8.932C64.5664 8.128 64.8844 7.522 65.5204 7.114C66.1564 6.706 66.9724 6.502 67.9684 6.502C68.7004 6.502 69.3724 6.598 69.9844 6.79C70.6084 6.97 71.1004 7.222 71.4604 7.546C71.8324 7.87 72.0184 8.236 72.0184 8.644C71.8744 8.716 71.7364 8.752 71.6044 8.752C71.4604 8.752 71.3104 8.722 71.1544 8.662C71.0104 8.59 70.7944 8.476 70.5064 8.32C70.0384 8.068 69.6004 7.87 69.1924 7.726C68.7844 7.57 68.3044 7.492 67.7524 7.492C67.0564 7.492 66.4924 7.612 66.0604 7.852C65.6284 8.092 65.4124 8.428 65.4124 8.86C65.4124 9.196 65.5564 9.502 65.8444 9.778C66.1444 10.054 66.5164 10.3 66.9604 10.516C67.4164 10.72 68.0224 10.966 68.7784 11.254C69.7384 11.626 70.5304 11.974 71.1544 12.298C71.7784 12.622 72.3064 13.036 72.7384 13.54C73.1824 14.032 73.4044 14.62 73.4044 15.304C73.4044 16.108 73.0204 16.732 72.2524 17.176C71.4844 17.608 70.5304 17.824 69.3904 17.824C68.4904 17.824 67.6024 17.692 66.7264 17.428C65.8504 17.164 65.1004 16.774 64.4764 16.258C63.8524 15.73 63.4564 15.1 63.2884 14.368C63.2884 14.044 63.3784 13.768 63.5584 13.54C63.7384 13.3 63.9604 13.18 64.2244 13.18C64.2244 13.96 64.4404 14.626 64.8724 15.178C65.3164 15.718 65.9104 16.126 66.6544 16.402C67.4104 16.678 68.2444 16.816 69.1564 16.816Z" fill="white"/>
<path d="M75.588 16.816C76.572 16.816 77.334 16.678 77.874 16.402C78.414 16.126 78.684 15.724 78.684 15.196C78.684 14.728 78.522 14.326 78.198 13.99C77.874 13.642 77.472 13.348 76.992 13.108C76.512 12.868 75.858 12.586 75.03 12.262C74.958 12.238 74.784 12.172 74.508 12.064C73.38 11.608 72.51 11.152 71.898 10.696C71.298 10.24 70.998 9.652 70.998 8.932C70.998 8.128 71.316 7.522 71.952 7.114C72.588 6.706 73.404 6.502 74.4 6.502C75.132 6.502 75.804 6.598 76.416 6.79C77.04 6.97 77.532 7.222 77.892 7.546C78.264 7.87 78.45 8.236 78.45 8.644C78.306 8.716 78.168 8.752 78.036 8.752C77.892 8.752 77.742 8.722 77.586 8.662C77.442 8.59 77.226 8.476 76.938 8.32C76.47 8.068 76.032 7.87 75.624 7.726C75.216 7.57 74.736 7.492 74.184 7.492C73.488 7.492 72.924 7.612 72.492 7.852C72.06 8.092 71.844 8.428 71.844 8.86C71.844 9.196 71.988 9.502 72.276 9.778C72.576 10.054 72.948 10.3 73.392 10.516C73.848 10.72 74.454 10.966 75.21 11.254C76.17 11.626 76.962 11.974 77.586 12.298C78.21 12.622 78.738 13.036 79.17 13.54C79.614 14.032 79.836 14.62 79.836 15.304C79.836 16.108 79.452 16.732 78.684 17.176C77.916 17.608 76.962 17.824 75.822 17.824C74.922 17.824 74.034 17.692 73.158 17.428C72.282 17.164 71.532 16.774 70.908 16.258C70.284 15.73 69.888 15.1 69.72 14.368C69.72 14.044 69.81 13.768 69.99 13.54C70.17 13.3 70.392 13.18 70.656 13.18C70.656 13.96 70.872 14.626 71.304 15.178C71.748 15.718 72.342 16.126 73.086 16.402C73.842 16.678 74.676 16.816 75.588 16.816Z" fill="white"/>
</svg>
