<svg width="28" height="26" viewBox="0 0 28 26" fill="none" xmlns="http://www.w3.org/2000/svg">
<path d="M8 7.5C8 9.70914 6.20914 11.5 4 11.5C1.79086 11.5 0 9.70914 0 7.5C0 4.5 1.79086 3.5 4 3.5C6.20914 3.5 8 5.29086 8 7.5Z" fill="#D0ECEA"/>
<path d="M28 8C28 9.933 26.2091 11.5 24 11.5C21.7909 11.5 20 9.933 20 8C20 6.067 21.7909 4 24 4C26.2091 4 28 5.5 28 8Z" fill="#D0ECEA"/>
<path d="M18 4.5C18 6.70914 16.2091 8.5 14 8.5C11.7909 8.5 10 6.70914 10 4.5C10 2.29086 11.7909 0 14 0C16.2091 0 18 2.29086 18 4.5Z" fill="#D0ECEA"/>
<path d="M24 18C24 22.1421 19.5 26.5 14 25.5C8.47715 25.5 4 22.1421 4 18C4 13.8579 8.47715 10.5 14 10.5C19.5 11 24 13.8579 24 18Z" fill="#D0ECEA"/>
</svg>
