<svg width="650" height="367" viewBox="0 0 650 367" fill="none" xmlns="http://www.w3.org/2000/svg">
<path d="M537 105.5C537 107.709 535.209 109.5 533 109.5C530.791 109.5 529 107.709 529 105.5C529 102.5 530.791 101.5 533 101.5C535.209 101.5 537 103.291 537 105.5Z" fill="#D0ECEA" fill-opacity="0.38"/>
<path d="M557 106C557 107.933 555.209 109.5 553 109.5C550.791 109.5 549 107.933 549 106C549 104.067 550.791 102 553 102C555.209 102 557 103.5 557 106Z" fill="#D0ECEA" fill-opacity="0.38"/>
<path d="M547 102.5C547 104.709 545.209 106.5 543 106.5C540.791 106.5 539 104.709 539 102.5C539 100.291 540.791 98 543 98C545.209 98 547 100.291 547 102.5Z" fill="#D0ECEA" fill-opacity="0.38"/>
<path d="M553 116C553 120.142 548.5 124.5 543 123.5C537.477 123.5 533 120.142 533 116C533 111.858 537.477 108.5 543 108.5C548.5 109 553 111.858 553 116Z" fill="#D0ECEA" fill-opacity="0.38"/>
<path d="M448 187.5C448 189.709 446.209 191.5 444 191.5C441.791 191.5 440 189.709 440 187.5C440 184.5 441.791 183.5 444 183.5C446.209 183.5 448 185.291 448 187.5Z" fill="#D0ECEA" fill-opacity="0.38"/>
<path d="M468 188C468 189.933 466.209 191.5 464 191.5C461.791 191.5 460 189.933 460 188C460 186.067 461.791 184 464 184C466.209 184 468 185.5 468 188Z" fill="#D0ECEA" fill-opacity="0.38"/>
<path d="M458 184.5C458 186.709 456.209 188.5 454 188.5C451.791 188.5 450 186.709 450 184.5C450 182.291 451.791 180 454 180C456.209 180 458 182.291 458 184.5Z" fill="#D0ECEA" fill-opacity="0.38"/>
<path d="M464 198C464 202.142 459.5 206.5 454 205.5C448.477 205.5 444 202.142 444 198C444 193.858 448.477 190.5 454 190.5C459.5 191 464 193.858 464 198Z" fill="#D0ECEA" fill-opacity="0.38"/>
<path d="M537 329.5C537 331.709 535.209 333.5 533 333.5C530.791 333.5 529 331.709 529 329.5C529 326.5 530.791 325.5 533 325.5C535.209 325.5 537 327.291 537 329.5Z" fill="#D0ECEA" fill-opacity="0.38"/>
<path d="M557 330C557 331.933 555.209 333.5 553 333.5C550.791 333.5 549 331.933 549 330C549 328.067 550.791 326 553 326C555.209 326 557 327.5 557 330Z" fill="#D0ECEA" fill-opacity="0.38"/>
<path d="M547 326.5C547 328.709 545.209 330.5 543 330.5C540.791 330.5 539 328.709 539 326.5C539 324.291 540.791 322 543 322C545.209 322 547 324.291 547 326.5Z" fill="#D0ECEA" fill-opacity="0.38"/>
<path d="M553 340C553 344.142 548.5 348.5 543 347.5C537.477 347.5 533 344.142 533 340C533 335.858 537.477 332.5 543 332.5C548.5 333 553 335.858 553 340Z" fill="#D0ECEA" fill-opacity="0.38"/>
<path d="M610 242.5C610 244.709 608.209 246.5 606 246.5C603.791 246.5 602 244.709 602 242.5C602 239.5 603.791 238.5 606 238.5C608.209 238.5 610 240.291 610 242.5Z" fill="#D0ECEA" fill-opacity="0.38"/>
<path d="M630 243C630 244.933 628.209 246.5 626 246.5C623.791 246.5 622 244.933 622 243C622 241.067 623.791 239 626 239C628.209 239 630 240.5 630 243Z" fill="#D0ECEA" fill-opacity="0.38"/>
<path d="M620 239.5C620 241.709 618.209 243.5 616 243.5C613.791 243.5 612 241.709 612 239.5C612 237.291 613.791 235 616 235C618.209 235 620 237.291 620 239.5Z" fill="#D0ECEA" fill-opacity="0.38"/>
<path d="M626 253C626 257.142 621.5 261.5 616 260.5C610.477 260.5 606 257.142 606 253C606 248.858 610.477 245.5 616 245.5C621.5 246 626 248.858 626 253Z" fill="#D0ECEA" fill-opacity="0.38"/>
<path d="M69 337.5C69 339.709 67.2091 341.5 65 341.5C62.7909 341.5 61 339.709 61 337.5C61 334.5 62.7909 333.5 65 333.5C67.2091 333.5 69 335.291 69 337.5Z" fill="#D0ECEA" fill-opacity="0.38"/>
<path d="M89 338C89 339.933 87.2091 341.5 85 341.5C82.7909 341.5 81 339.933 81 338C81 336.067 82.7909 334 85 334C87.2091 334 89 335.5 89 338Z" fill="#D0ECEA" fill-opacity="0.38"/>
<path d="M79 334.5C79 336.709 77.2091 338.5 75 338.5C72.7909 338.5 71 336.709 71 334.5C71 332.291 72.7909 330 75 330C77.2091 330 79 332.291 79 334.5Z" fill="#D0ECEA" fill-opacity="0.38"/>
<path d="M85 348C85 352.142 80.5 356.5 75 355.5C69.4771 355.5 65 352.142 65 348C65 343.858 69.4771 340.5 75 340.5C80.5 341 85 343.858 85 348Z" fill="#D0ECEA" fill-opacity="0.38"/>
<path d="M8 166.5C8 168.709 6.20914 170.5 4 170.5C1.79086 170.5 0 168.709 0 166.5C0 163.5 1.79086 162.5 4 162.5C6.20914 162.5 8 164.291 8 166.5Z" fill="#D0ECEA" fill-opacity="0.38"/>
<path d="M28 167C28 168.933 26.2091 170.5 24 170.5C21.7909 170.5 20 168.933 20 167C20 165.067 21.7909 163 24 163C26.2091 163 28 164.5 28 167Z" fill="#D0ECEA" fill-opacity="0.38"/>
<path d="M18 163.5C18 165.709 16.2091 167.5 14 167.5C11.7909 167.5 10 165.709 10 163.5C10 161.291 11.7909 159 14 159C16.2091 159 18 161.291 18 163.5Z" fill="#D0ECEA" fill-opacity="0.38"/>
<path d="M24 177C24 181.142 19.5 185.5 14 184.5C8.47715 184.5 4 181.142 4 177C4 172.858 8.47715 169.5 14 169.5C19.5 170 24 172.858 24 177Z" fill="#D0ECEA" fill-opacity="0.38"/>
<path d="M126 242.5C126 244.709 124.209 246.5 122 246.5C119.791 246.5 118 244.709 118 242.5C118 239.5 119.791 238.5 122 238.5C124.209 238.5 126 240.291 126 242.5Z" fill="#D0ECEA" fill-opacity="0.38"/>
<path d="M146 243C146 244.933 144.209 246.5 142 246.5C139.791 246.5 138 244.933 138 243C138 241.067 139.791 239 142 239C144.209 239 146 240.5 146 243Z" fill="#D0ECEA" fill-opacity="0.38"/>
<path d="M136 239.5C136 241.709 134.209 243.5 132 243.5C129.791 243.5 128 241.709 128 239.5C128 237.291 129.791 235 132 235C134.209 235 136 237.291 136 239.5Z" fill="#D0ECEA" fill-opacity="0.38"/>
<path d="M142 253C142 257.142 137.5 261.5 132 260.5C126.477 260.5 122 257.142 122 253C122 248.858 126.477 245.5 132 245.5C137.5 246 142 248.858 142 253Z" fill="#D0ECEA" fill-opacity="0.38"/>
<path d="M561 179.5C561 181.709 559.209 183.5 557 183.5C554.791 183.5 553 181.709 553 179.5C553 176.5 554.791 175.5 557 175.5C559.209 175.5 561 177.291 561 179.5Z" fill="#D0ECEA" fill-opacity="0.38"/>
<path d="M581 180C581 181.933 579.209 183.5 577 183.5C574.791 183.5 573 181.933 573 180C573 178.067 574.791 176 577 176C579.209 176 581 177.5 581 180Z" fill="#D0ECEA" fill-opacity="0.38"/>
<path d="M571 176.5C571 178.709 569.209 180.5 567 180.5C564.791 180.5 563 178.709 563 176.5C563 174.291 564.791 172 567 172C569.209 172 571 174.291 571 176.5Z" fill="#D0ECEA" fill-opacity="0.38"/>
<path d="M577 190C577 194.142 572.5 198.5 567 197.5C561.477 197.5 557 194.142 557 190C557 185.858 561.477 182.5 567 182.5C572.5 183 577 185.858 577 190Z" fill="#D0ECEA" fill-opacity="0.38"/>
<path d="M630 35.5C630 37.7091 628.209 39.5 626 39.5C623.791 39.5 622 37.7091 622 35.5C622 32.5 623.791 31.5 626 31.5C628.209 31.5 630 33.2909 630 35.5Z" fill="#D0ECEA" fill-opacity="0.38"/>
<path d="M650 36C650 37.933 648.209 39.5 646 39.5C643.791 39.5 642 37.933 642 36C642 34.067 643.791 32 646 32C648.209 32 650 33.5 650 36Z" fill="#D0ECEA" fill-opacity="0.38"/>
<path d="M640 32.5C640 34.7091 638.209 36.5 636 36.5C633.791 36.5 632 34.7091 632 32.5C632 30.2909 633.791 28 636 28C638.209 28 640 30.2909 640 32.5Z" fill="#D0ECEA" fill-opacity="0.38"/>
<path d="M646 46C646 50.1421 641.5 54.5 636 53.5C630.477 53.5 626 50.1421 626 46C626 41.8579 630.477 38.5 636 38.5C641.5 39 646 41.8579 646 46Z" fill="#D0ECEA" fill-opacity="0.38"/>
<path d="M421 295.5C421 297.709 419.209 299.5 417 299.5C414.791 299.5 413 297.709 413 295.5C413 292.5 414.791 291.5 417 291.5C419.209 291.5 421 293.291 421 295.5Z" fill="#D0ECEA" fill-opacity="0.38"/>
<path d="M441 296C441 297.933 439.209 299.5 437 299.5C434.791 299.5 433 297.933 433 296C433 294.067 434.791 292 437 292C439.209 292 441 293.5 441 296Z" fill="#D0ECEA" fill-opacity="0.38"/>
<path d="M431 292.5C431 294.709 429.209 296.5 427 296.5C424.791 296.5 423 294.709 423 292.5C423 290.291 424.791 288 427 288C429.209 288 431 290.291 431 292.5Z" fill="#D0ECEA" fill-opacity="0.38"/>
<path d="M437 306C437 310.142 432.5 314.5 427 313.5C421.477 313.5 417 310.142 417 306C417 301.858 421.477 298.5 427 298.5C432.5 299 437 301.858 437 306Z" fill="#D0ECEA" fill-opacity="0.38"/>
<path d="M281 348.5C281 350.709 279.209 352.5 277 352.5C274.791 352.5 273 350.709 273 348.5C273 345.5 274.791 344.5 277 344.5C279.209 344.5 281 346.291 281 348.5Z" fill="#D0ECEA" fill-opacity="0.38"/>
<path d="M301 349C301 350.933 299.209 352.5 297 352.5C294.791 352.5 293 350.933 293 349C293 347.067 294.791 345 297 345C299.209 345 301 346.5 301 349Z" fill="#D0ECEA" fill-opacity="0.38"/>
<path d="M291 345.5C291 347.709 289.209 349.5 287 349.5C284.791 349.5 283 347.709 283 345.5C283 343.291 284.791 341 287 341C289.209 341 291 343.291 291 345.5Z" fill="#D0ECEA" fill-opacity="0.38"/>
<path d="M297 359C297 363.142 292.5 367.5 287 366.5C281.477 366.5 277 363.142 277 359C277 354.858 281.477 351.5 287 351.5C292.5 352 297 354.858 297 359Z" fill="#D0ECEA" fill-opacity="0.38"/>
<path d="M407 79.5C407 81.7091 405.209 83.5 403 83.5C400.791 83.5 399 81.7091 399 79.5C399 76.5 400.791 75.5 403 75.5C405.209 75.5 407 77.2909 407 79.5Z" fill="#D0ECEA" fill-opacity="0.38"/>
<path d="M427 80C427 81.933 425.209 83.5 423 83.5C420.791 83.5 419 81.933 419 80C419 78.067 420.791 76 423 76C425.209 76 427 77.5 427 80Z" fill="#D0ECEA" fill-opacity="0.38"/>
<path d="M417 76.5C417 78.7091 415.209 80.5 413 80.5C410.791 80.5 409 78.7091 409 76.5C409 74.2909 410.791 72 413 72C415.209 72 417 74.2909 417 76.5Z" fill="#D0ECEA" fill-opacity="0.38"/>
<path d="M423 90C423 94.1421 418.5 98.5 413 97.5C407.477 97.5 403 94.1421 403 90C403 85.8579 407.477 82.5 413 82.5C418.5 83 423 85.8579 423 90Z" fill="#D0ECEA" fill-opacity="0.38"/>
<path d="M108 77.5C108 79.7091 106.209 81.5 104 81.5C101.791 81.5 100 79.7091 100 77.5C100 74.5 101.791 73.5 104 73.5C106.209 73.5 108 75.2909 108 77.5Z" fill="#D0ECEA" fill-opacity="0.38"/>
<path d="M128 78C128 79.933 126.209 81.5 124 81.5C121.791 81.5 120 79.933 120 78C120 76.067 121.791 74 124 74C126.209 74 128 75.5 128 78Z" fill="#D0ECEA" fill-opacity="0.38"/>
<path d="M118 74.5C118 76.7091 116.209 78.5 114 78.5C111.791 78.5 110 76.7091 110 74.5C110 72.2909 111.791 70 114 70C116.209 70 118 72.2909 118 74.5Z" fill="#D0ECEA" fill-opacity="0.38"/>
<path d="M124 88C124 92.1421 119.5 96.5 114 95.5C108.477 95.5 104 92.1421 104 88C104 83.8579 108.477 80.5 114 80.5C119.5 81 124 83.8579 124 88Z" fill="#D0ECEA" fill-opacity="0.38"/>
<path d="M342 236.5C342 238.709 340.209 240.5 338 240.5C335.791 240.5 334 238.709 334 236.5C334 233.5 335.791 232.5 338 232.5C340.209 232.5 342 234.291 342 236.5Z" fill="#D0ECEA" fill-opacity="0.38"/>
<path d="M362 237C362 238.933 360.209 240.5 358 240.5C355.791 240.5 354 238.933 354 237C354 235.067 355.791 233 358 233C360.209 233 362 234.5 362 237Z" fill="#D0ECEA" fill-opacity="0.38"/>
<path d="M352 233.5C352 235.709 350.209 237.5 348 237.5C345.791 237.5 344 235.709 344 233.5C344 231.291 345.791 229 348 229C350.209 229 352 231.291 352 233.5Z" fill="#D0ECEA" fill-opacity="0.38"/>
<path d="M358 247C358 251.142 353.5 255.5 348 254.5C342.477 254.5 338 251.142 338 247C338 242.858 342.477 239.5 348 239.5C353.5 240 358 242.858 358 247Z" fill="#D0ECEA" fill-opacity="0.38"/>
<path d="M173 138.5C173 140.709 171.209 142.5 169 142.5C166.791 142.5 165 140.709 165 138.5C165 135.5 166.791 134.5 169 134.5C171.209 134.5 173 136.291 173 138.5Z" fill="#D0ECEA" fill-opacity="0.38"/>
<path d="M193 139C193 140.933 191.209 142.5 189 142.5C186.791 142.5 185 140.933 185 139C185 137.067 186.791 135 189 135C191.209 135 193 136.5 193 139Z" fill="#D0ECEA" fill-opacity="0.38"/>
<path d="M183 135.5C183 137.709 181.209 139.5 179 139.5C176.791 139.5 175 137.709 175 135.5C175 133.291 176.791 131 179 131C181.209 131 183 133.291 183 135.5Z" fill="#D0ECEA" fill-opacity="0.38"/>
<path d="M189 149C189 153.142 184.5 157.5 179 156.5C173.477 156.5 169 153.142 169 149C169 144.858 173.477 141.5 179 141.5C184.5 142 189 144.858 189 149Z" fill="#D0ECEA" fill-opacity="0.38"/>
<path d="M342 71.5C342 73.7091 340.209 75.5 338 75.5C335.791 75.5 334 73.7091 334 71.5C334 68.5 335.791 67.5 338 67.5C340.209 67.5 342 69.2909 342 71.5Z" fill="#D0ECEA" fill-opacity="0.38"/>
<path d="M362 72C362 73.933 360.209 75.5 358 75.5C355.791 75.5 354 73.933 354 72C354 70.067 355.791 68 358 68C360.209 68 362 69.5 362 72Z" fill="#D0ECEA" fill-opacity="0.38"/>
<path d="M352 68.5C352 70.7091 350.209 72.5 348 72.5C345.791 72.5 344 70.7091 344 68.5C344 66.2909 345.791 64 348 64C350.209 64 352 66.2909 352 68.5Z" fill="#D0ECEA" fill-opacity="0.38"/>
<path d="M358 82C358 86.1421 353.5 90.5 348 89.5C342.477 89.5 338 86.1421 338 82C338 77.8579 342.477 74.5 348 74.5C353.5 75 358 77.8579 358 82Z" fill="#D0ECEA" fill-opacity="0.38"/>
<path d="M281 142.5C281 144.709 279.209 146.5 277 146.5C274.791 146.5 273 144.709 273 142.5C273 139.5 274.791 138.5 277 138.5C279.209 138.5 281 140.291 281 142.5Z" fill="#D0ECEA" fill-opacity="0.38"/>
<path d="M301 143C301 144.933 299.209 146.5 297 146.5C294.791 146.5 293 144.933 293 143C293 141.067 294.791 139 297 139C299.209 139 301 140.5 301 143Z" fill="#D0ECEA" fill-opacity="0.38"/>
<path d="M291 139.5C291 141.709 289.209 143.5 287 143.5C284.791 143.5 283 141.709 283 139.5C283 137.291 284.791 135 287 135C289.209 135 291 137.291 291 139.5Z" fill="#D0ECEA" fill-opacity="0.38"/>
<path d="M297 153C297 157.142 292.5 161.5 287 160.5C281.477 160.5 277 157.142 277 153C277 148.858 281.477 145.5 287 145.5C292.5 146 297 148.858 297 153Z" fill="#D0ECEA" fill-opacity="0.38"/>
<path d="M210 7.5C210 9.70914 208.209 11.5 206 11.5C203.791 11.5 202 9.70914 202 7.5C202 4.5 203.791 3.5 206 3.5C208.209 3.5 210 5.29086 210 7.5Z" fill="#D0ECEA" fill-opacity="0.38"/>
<path d="M230 8C230 9.933 228.209 11.5 226 11.5C223.791 11.5 222 9.933 222 8C222 6.067 223.791 4 226 4C228.209 4 230 5.5 230 8Z" fill="#D0ECEA" fill-opacity="0.38"/>
<path d="M220 4.5C220 6.70914 218.209 8.5 216 8.5C213.791 8.5 212 6.70914 212 4.5C212 2.29086 213.791 0 216 0C218.209 0 220 2.29086 220 4.5Z" fill="#D0ECEA" fill-opacity="0.38"/>
<path d="M226 18C226 22.1421 221.5 26.5 216 25.5C210.477 25.5 206 22.1421 206 18C206 13.8579 210.477 10.5 216 10.5C221.5 11 226 13.8579 226 18Z" fill="#D0ECEA" fill-opacity="0.38"/>
</svg>
